# Tiled2Unity generated file. Do not modify by hand.
# Wavefront file for 'casa_mesh_0004.obj'

# Vertices (Count = 272)
v 0 -1 0
v -1 -1 0
v -1 0 0
v 0 0 0
v -2 -1 0
v -3 -1 0
v -3 0 0
v -2 0 0
v -3 -1 0
v -4 -1 0
v -4 0 0
v -3 0 0
v -5 -1 0
v -6 -1 0
v -6 0 0
v -5 0 0
v -6 -1 0
v -7 -1 0
v -7 0 0
v -6 0 0
v -8 -1 0
v -9 -1 0
v -9 0 0
v -8 0 0
v -9 -1 0
v -10 -1 0
v -10 0 0
v -9 0 0
v 0 -2 0
v -1 -2 0
v -1 -1 0
v 0 -1 0
v -5 -2 0
v -6 -2 0
v -6 -1 0
v -5 -1 0
v -6 -2 0
v -7 -2 0
v -7 -1 0
v -6 -1 0
v 0 -3 0
v -1 -3 0
v -1 -2 0
v 0 -2 0
v -2 -3 0
v -3 -3 0
v -3 -2 0
v -2 -2 0
v -3 -3 0
v -4 -3 0
v -4 -2 0
v -3 -2 0
v -4 -3 0
v -5 -3 0
v -5 -2 0
v -4 -2 0
v -5 -3 0
v -6 -3 0
v -6 -2 0
v -5 -2 0
v -6 -3 0
v -7 -3 0
v -7 -2 0
v -6 -2 0
v -7 -3 0
v -8 -3 0
v -8 -2 0
v -7 -2 0
v -8 -3 0
v -9 -3 0
v -9 -2 0
v -8 -2 0
v -9 -3 0
v -10 -3 0
v -10 -2 0
v -9 -2 0
v -11 -3 0
v -12 -3 0
v -12 -2 0
v -11 -2 0
v 0 -4 0
v -1 -4 0
v -1 -3 0
v 0 -3 0
v -2 -4 0
v -3 -4 0
v -3 -3 0
v -2 -3 0
v -3 -4 0
v -4 -4 0
v -4 -3 0
v -3 -3 0
v -4 -4 0
v -5 -4 0
v -5 -3 0
v -4 -3 0
v -7 -4 0
v -8 -4 0
v -8 -3 0
v -7 -3 0
v -8 -4 0
v -9 -4 0
v -9 -3 0
v -8 -3 0
v -9 -4 0
v -10 -4 0
v -10 -3 0
v -9 -3 0
v -11 -4 0
v -12 -4 0
v -12 -3 0
v -11 -3 0
v 0 -5 0
v -1 -5 0
v -1 -4 0
v 0 -4 0
v -2 -5 0
v -3 -5 0
v -3 -4 0
v -2 -4 0
v -3 -5 0
v -4 -5 0
v -4 -4 0
v -3 -4 0
v -4 -5 0
v -5 -5 0
v -5 -4 0
v -4 -4 0
v -7 -5 0
v -8 -5 0
v -8 -4 0
v -7 -4 0
v -8 -5 0
v -9 -5 0
v -9 -4 0
v -8 -4 0
v -9 -5 0
v -10 -5 0
v -10 -4 0
v -9 -4 0
v -11 -5 0
v -12 -5 0
v -12 -4 0
v -11 -4 0
v 0 -6 0
v -1 -6 0
v -1 -5 0
v 0 -5 0
v -8 -6 0
v -9 -6 0
v -9 -5 0
v -8 -5 0
v 0 -7 0
v -1 -7 0
v -1 -6 0
v 0 -6 0
v -2 -7 0
v -3 -7 0
v -3 -6 0
v -2 -6 0
v -3 -7 0
v -4 -7 0
v -4 -6 0
v -3 -6 0
v -4 -7 0
v -5 -7 0
v -5 -6 0
v -4 -6 0
v -7 -7 0
v -8 -7 0
v -8 -6 0
v -7 -6 0
v -8 -7 0
v -9 -7 0
v -9 -6 0
v -8 -6 0
v -9 -7 0
v -10 -7 0
v -10 -6 0
v -9 -6 0
v 0 -8 0
v -1 -8 0
v -1 -7 0
v 0 -7 0
v -2 -8 0
v -3 -8 0
v -3 -7 0
v -2 -7 0
v -3 -8 0
v -4 -8 0
v -4 -7 0
v -3 -7 0
v -4 -8 0
v -5 -8 0
v -5 -7 0
v -4 -7 0
v -7 -8 0
v -8 -8 0
v -8 -7 0
v -7 -7 0
v -8 -8 0
v -9 -8 0
v -9 -7 0
v -8 -7 0
v -9 -8 0
v -10 -8 0
v -10 -7 0
v -9 -7 0
v -11 -8 0
v -12 -8 0
v -12 -7 0
v -11 -7 0
v 0 -9 0
v -1 -9 0
v -1 -8 0
v 0 -8 0
v -2 -9 0
v -3 -9 0
v -3 -8 0
v -2 -8 0
v -3 -9 0
v -4 -9 0
v -4 -8 0
v -3 -8 0
v -4 -9 0
v -5 -9 0
v -5 -8 0
v -4 -8 0
v -7 -9 0
v -8 -9 0
v -8 -8 0
v -7 -8 0
v -8 -9 0
v -9 -9 0
v -9 -8 0
v -8 -8 0
v -9 -9 0
v -10 -9 0
v -10 -8 0
v -9 -8 0
v -11 -9 0
v -12 -9 0
v -12 -8 0
v -11 -8 0
v 0 -10 0
v -1 -10 0
v -1 -9 0
v 0 -9 0
v -11 -10 0
v -12 -10 0
v -12 -9 0
v -11 -9 0
v 0 -11 0
v -1 -11 0
v -1 -10 0
v 0 -10 0
v -5 -11 0
v -6 -11 0
v -6 -10 0
v -5 -10 0
v -6 -11 0
v -7 -11 0
v -7 -10 0
v -6 -10 0
v -5 -12 0
v -6 -12 0
v -6 -11 0
v -5 -11 0
v -6 -12 0
v -7 -12 0
v -7 -11 0
v -6 -11 0

# Texture cooridinates (Count = 73)
vt 0.15 0.72
vt 0.15 0.68
vt 0.175 0.68
vt 0.175 0.72
vt 0.3 0.96
vt 0.325 0.96
vt 0.325 1
vt 0.3 1
vt 0.35 0.96
vt 0.35 1
vt 0.3 0.56
vt 0.325 0.56
vt 0.325 0.6
vt 0.3 0.6
vt 0.35 0.56
vt 0.35 0.6
vt 0.3 0.52
vt 0.325 0.52
vt 0.35 0.52
vt 0 0.68
vt 0.025 0.68
vt 0.025 0.72
vt 0 0.72
vt 0.05 0.68
vt 0.05 0.72
vt 0.075 0.68
vt 0.075 0.72
vt 0.25 0.48
vt 0.275 0.48
vt 0.275 0.52
vt 0.25 0.52
vt 0.3 0.48
vt 0.375 0.8
vt 0.4 0.8
vt 0.4 0.84
vt 0.375 0.84
vt 0.15 0.48
vt 0.175 0.48
vt 0.175 0.52
vt 0.15 0.52
vt 0 0.64
vt 0.025 0.64
vt 0.05 0.64
vt 0.075 0.64
vt 0.375 0.76
vt 0.4 0.76
vt 0.15 0.44
vt 0.175 0.44
vt 0 0.6
vt 0.025 0.6
vt 0.05 0.6
vt 0.075 0.6
vt 0.375 0.72
vt 0.4 0.72
vt 0.15 0.4
vt 0.175 0.4
vt 0.425 0.8
vt 0.45 0.8
vt 0.45 0.84
vt 0.425 0.84
vt 0.425 0.76
vt 0.45 0.76
vt 0.425 0.72
vt 0.45 0.72
vt 0 0.36
vt 0.025 0.36
vt 0.025 0.4
vt 0 0.4
vt 0.05 0.36
vt 0.05 0.4
vt 0 0.32
vt 0.025 0.32
vt 0.05 0.32

# Normal
vn 0 0 -1

# Mesh description
g casa_mesh_0004

# Faces
f 1/1/1 2/2/1 3/3/1 4/4/1
f 5/5/1 6/6/1 7/7/1 8/8/1
f 9/6/1 10/9/1 11/10/1 12/7/1
f 13/11/1 14/12/1 15/13/1 16/14/1
f 17/12/1 18/15/1 19/16/1 20/13/1
f 21/5/1 22/6/1 23/7/1 24/8/1
f 25/6/1 26/9/1 27/10/1 28/7/1
f 29/1/1 30/2/1 31/3/1 32/4/1
f 33/17/1 34/18/1 35/12/1 36/11/1
f 37/18/1 38/19/1 39/15/1 40/12/1
f 41/1/1 42/2/1 43/3/1 44/4/1
f 45/20/1 46/21/1 47/22/1 48/23/1
f 49/21/1 50/24/1 51/25/1 52/22/1
f 53/24/1 54/26/1 55/27/1 56/25/1
f 57/28/1 58/29/1 59/30/1 60/31/1
f 61/29/1 62/32/1 63/17/1 64/30/1
f 65/20/1 66/21/1 67/22/1 68/23/1
f 69/33/1 70/34/1 71/35/1 72/36/1
f 73/24/1 74/26/1 75/27/1 76/25/1
f 77/37/1 78/38/1 79/39/1 80/40/1
f 81/1/1 82/2/1 83/3/1 84/4/1
f 85/41/1 86/42/1 87/21/1 88/20/1
f 89/42/1 90/43/1 91/24/1 92/21/1
f 93/43/1 94/44/1 95/26/1 96/24/1
f 97/41/1 98/42/1 99/21/1 100/20/1
f 101/45/1 102/46/1 103/34/1 104/33/1
f 105/43/1 106/44/1 107/26/1 108/24/1
f 109/47/1 110/48/1 111/38/1 112/37/1
f 113/1/1 114/2/1 115/3/1 116/4/1
f 117/49/1 118/50/1 119/42/1 120/41/1
f 121/50/1 122/51/1 123/43/1 124/42/1
f 125/51/1 126/52/1 127/44/1 128/43/1
f 129/49/1 130/50/1 131/42/1 132/41/1
f 133/53/1 134/54/1 135/46/1 136/45/1
f 137/51/1 138/52/1 139/44/1 140/43/1
f 141/55/1 142/56/1 143/48/1 144/47/1
f 145/1/1 146/2/1 147/3/1 148/4/1
f 149/57/1 150/58/1 151/59/1 152/60/1
f 153/1/1 154/2/1 155/3/1 156/4/1
f 157/20/1 158/21/1 159/22/1 160/23/1
f 161/21/1 162/24/1 163/25/1 164/22/1
f 165/24/1 166/26/1 167/27/1 168/25/1
f 169/20/1 170/21/1 171/22/1 172/23/1
f 173/61/1 174/62/1 175/58/1 176/57/1
f 177/24/1 178/26/1 179/27/1 180/25/1
f 181/1/1 182/2/1 183/3/1 184/4/1
f 185/41/1 186/42/1 187/21/1 188/20/1
f 189/42/1 190/43/1 191/24/1 192/21/1
f 193/43/1 194/44/1 195/26/1 196/24/1
f 197/41/1 198/42/1 199/21/1 200/20/1
f 201/63/1 202/64/1 203/62/1 204/61/1
f 205/43/1 206/44/1 207/26/1 208/24/1
f 209/37/1 210/38/1 211/39/1 212/40/1
f 213/1/1 214/2/1 215/3/1 216/4/1
f 217/49/1 218/50/1 219/42/1 220/41/1
f 221/50/1 222/51/1 223/43/1 224/42/1
f 225/51/1 226/52/1 227/44/1 228/43/1
f 229/49/1 230/50/1 231/42/1 232/41/1
f 233/50/1 234/51/1 235/43/1 236/42/1
f 237/51/1 238/52/1 239/44/1 240/43/1
f 241/47/1 242/48/1 243/38/1 244/37/1
f 245/1/1 246/2/1 247/3/1 248/4/1
f 249/55/1 250/56/1 251/48/1 252/47/1
f 253/1/1 254/2/1 255/3/1 256/4/1
f 257/65/1 258/66/1 259/67/1 260/68/1
f 261/66/1 262/69/1 263/70/1 264/67/1
f 265/71/1 266/72/1 267/66/1 268/65/1
f 269/72/1 270/73/1 271/69/1 272/66/1

