# Tiled2Unity generated file. Do not modify by hand.
# Wavefront file for 'casa_mesh_0003.obj'

# Vertices (Count = 60)
v -6 -5 0
v -7 -5 0
v -7 -4 0
v -6 -4 0
v -7 -5 0
v -8 -5 0
v -8 -4 0
v -7 -4 0
v -8 -5 0
v -9 -5 0
v -9 -4 0
v -8 -4 0
v -9 -5 0
v -10 -5 0
v -10 -4 0
v -9 -4 0
v -10 -5 0
v -11 -5 0
v -11 -4 0
v -10 -4 0
v -6 -6 0
v -7 -6 0
v -7 -5 0
v -6 -5 0
v -7 -6 0
v -8 -6 0
v -8 -5 0
v -7 -5 0
v -8 -6 0
v -9 -6 0
v -9 -5 0
v -8 -5 0
v -9 -6 0
v -10 -6 0
v -10 -5 0
v -9 -5 0
v -10 -6 0
v -11 -6 0
v -11 -5 0
v -10 -5 0
v -6 -7 0
v -7 -7 0
v -7 -6 0
v -6 -6 0
v -7 -7 0
v -8 -7 0
v -8 -6 0
v -7 -6 0
v -8 -7 0
v -9 -7 0
v -9 -6 0
v -8 -6 0
v -9 -7 0
v -10 -7 0
v -10 -6 0
v -9 -6 0
v -10 -7 0
v -11 -7 0
v -11 -6 0
v -10 -6 0

# Texture cooridinates (Count = 31)
vt 0.4 0.8
vt 0.425 0.8
vt 0.425 0.84
vt 0.4 0.84
vt 0.325 0.92
vt 0.35 0.92
vt 0.35 0.96
vt 0.325 0.96
vt 0.375 0.92
vt 0.375 0.96
vt 0.4 0.92
vt 0.4 0.96
vt 0.45 0.8
vt 0.475 0.8
vt 0.475 0.84
vt 0.45 0.84
vt 0.4 0.76
vt 0.425 0.76
vt 0.325 0.88
vt 0.35 0.88
vt 0.375 0.88
vt 0.4 0.88
vt 0.45 0.76
vt 0.475 0.76
vt 0.4 0.72
vt 0.425 0.72
vt 0.325 0.84
vt 0.35 0.84
vt 0.375 0.84
vt 0.45 0.72
vt 0.475 0.72

# Normal
vn 0 0 -1

# Mesh description
g casa_mesh_0003

# Faces
f 1/1/1 2/2/1 3/3/1 4/4/1
f 5/5/1 6/6/1 7/7/1 8/8/1
f 9/6/1 10/9/1 11/10/1 12/7/1
f 13/9/1 14/11/1 15/12/1 16/10/1
f 17/13/1 18/14/1 19/15/1 20/16/1
f 21/17/1 22/18/1 23/2/1 24/1/1
f 25/19/1 26/20/1 27/6/1 28/5/1
f 29/20/1 30/21/1 31/9/1 32/6/1
f 33/21/1 34/22/1 35/11/1 36/9/1
f 37/23/1 38/24/1 39/14/1 40/13/1
f 41/25/1 42/26/1 43/18/1 44/17/1
f 45/27/1 46/28/1 47/20/1 48/19/1
f 49/28/1 50/29/1 51/21/1 52/20/1
f 53/29/1 54/4/1 55/22/1 56/21/1
f 57/30/1 58/31/1 59/24/1 60/23/1

