# Tiled2Unity generated file. Do not modify by hand.
# Wavefront file for 'casa_mesh_0005.obj'

# Vertices (Count = 92)
v -1 -1 0
v -2 -1 0
v -2 0 0
v -1 0 0
v -2 -1 0
v -3 -1 0
v -3 0 0
v -2 0 0
v -3 -1 0
v -4 -1 0
v -4 0 0
v -3 0 0
v -1 -2 0
v -2 -2 0
v -2 -1 0
v -1 -1 0
v -2 -2 0
v -3 -2 0
v -3 -1 0
v -2 -1 0
v -3 -2 0
v -4 -2 0
v -4 -1 0
v -3 -1 0
v 0 -4 0
v -1 -4 0
v -1 -3 0
v 0 -3 0
v -1 -4 0
v -2 -4 0
v -2 -3 0
v -1 -3 0
v 0 -5 0
v -1 -5 0
v -1 -4 0
v 0 -4 0
v -1 -5 0
v -2 -5 0
v -2 -4 0
v -1 -4 0
v -7 -5 0
v -8 -5 0
v -8 -4 0
v -7 -4 0
v -8 -5 0
v -9 -5 0
v -9 -4 0
v -8 -4 0
v -9 -5 0
v -10 -5 0
v -10 -4 0
v -9 -4 0
v -7 -6 0
v -8 -6 0
v -8 -5 0
v -7 -5 0
v -8 -6 0
v -9 -6 0
v -9 -5 0
v -8 -5 0
v -9 -6 0
v -10 -6 0
v -10 -5 0
v -9 -5 0
v -7 -7 0
v -8 -7 0
v -8 -6 0
v -7 -6 0
v -8 -7 0
v -9 -7 0
v -9 -6 0
v -8 -6 0
v -9 -7 0
v -10 -7 0
v -10 -6 0
v -9 -6 0
v 0 -8 0
v -1 -8 0
v -1 -7 0
v 0 -7 0
v -1 -8 0
v -2 -8 0
v -2 -7 0
v -1 -7 0
v 0 -9 0
v -1 -9 0
v -1 -8 0
v 0 -8 0
v -1 -9 0
v -2 -9 0
v -2 -8 0
v -1 -8 0

# Texture cooridinates (Count = 37)
vt 0.075 0.48
vt 0.1 0.48
vt 0.1 0.52
vt 0.075 0.52
vt 0.125 0.48
vt 0.125 0.52
vt 0.15 0.48
vt 0.15 0.52
vt 0.075 0.44
vt 0.1 0.44
vt 0.125 0.44
vt 0.15 0.44
vt 0.025 0.32
vt 0.025 0.36
vt 0.05 0.36
vt 0.05 0.32
vt 0.025 0.4
vt 0.05 0.4
vt 0 0.32
vt 0 0.36
vt 0 0.4
vt 0.325 0.92
vt 0.35 0.92
vt 0.35 0.96
vt 0.325 0.96
vt 0.375 0.92
vt 0.375 0.96
vt 0.4 0.92
vt 0.4 0.96
vt 0.325 0.88
vt 0.35 0.88
vt 0.375 0.88
vt 0.4 0.88
vt 0.325 0.84
vt 0.35 0.84
vt 0.375 0.84
vt 0.4 0.84

# Normal
vn 0 0 -1

# Mesh description
g casa_mesh_0005

# Faces
f 1/1/1 2/2/1 3/3/1 4/4/1
f 5/2/1 6/5/1 7/6/1 8/3/1
f 9/5/1 10/7/1 11/8/1 12/6/1
f 13/9/1 14/10/1 15/2/1 16/1/1
f 17/10/1 18/11/1 19/5/1 20/2/1
f 21/11/1 22/12/1 23/7/1 24/5/1
f 25/13/1 26/14/1 27/15/1 28/16/1
f 29/14/1 30/17/1 31/18/1 32/15/1
f 33/19/1 34/20/1 35/14/1 36/13/1
f 37/20/1 38/21/1 39/17/1 40/14/1
f 41/22/1 42/23/1 43/24/1 44/25/1
f 45/23/1 46/26/1 47/27/1 48/24/1
f 49/26/1 50/28/1 51/29/1 52/27/1
f 53/30/1 54/31/1 55/23/1 56/22/1
f 57/31/1 58/32/1 59/26/1 60/23/1
f 61/32/1 62/33/1 63/28/1 64/26/1
f 65/34/1 66/35/1 67/31/1 68/30/1
f 69/35/1 70/36/1 71/32/1 72/31/1
f 73/36/1 74/37/1 75/33/1 76/32/1
f 77/13/1 78/14/1 79/15/1 80/16/1
f 81/14/1 82/17/1 83/18/1 84/15/1
f 85/19/1 86/20/1 87/14/1 88/13/1
f 89/20/1 90/21/1 91/17/1 92/14/1

