# Tiled2Unity generated file. Do not modify by hand.
# Wavefront file for 'casacuarto2_mesh_0005.obj'

# Vertices (Count = 60)
v -8 -1 0
v -9 -1 0
v -9 0 0
v -8 0 0
v -8 -2 0
v -9 -2 0
v -9 -1 0
v -8 -1 0
v -1 -4 0
v -2 -4 0
v -2 -3 0
v -1 -3 0
v -1 -5 0
v -2 -5 0
v -2 -4 0
v -1 -4 0
v -8 -5 0
v -9 -5 0
v -9 -4 0
v -8 -4 0
v -8 -6 0
v -9 -6 0
v -9 -5 0
v -8 -5 0
v -3 -7 0
v -4 -7 0
v -4 -6 0
v -3 -6 0
v -3 -8 0
v -4 -8 0
v -4 -7 0
v -3 -7 0
v -4 -8 0
v -5 -8 0
v -5 -7 0
v -4 -7 0
v -5 -8 0
v -6 -8 0
v -6 -7 0
v -5 -7 0
v -6 -8 0
v -7 -8 0
v -7 -7 0
v -6 -7 0
v -3 -9 0
v -4 -9 0
v -4 -8 0
v -3 -8 0
v -4 -9 0
v -5 -9 0
v -5 -8 0
v -4 -8 0
v -5 -9 0
v -6 -9 0
v -6 -8 0
v -5 -8 0
v -6 -9 0
v -7 -9 0
v -7 -8 0
v -6 -8 0

# Texture cooridinates (Count = 29)
vt 0.2 0.48
vt 0.225 0.48
vt 0.225 0.52
vt 0.2 0.52
vt 0.2 0.44
vt 0.225 0.44
vt 0.4 0.8
vt 0.425 0.8
vt 0.425 0.84
vt 0.4 0.84
vt 0.4 0.76
vt 0.425 0.76
vt 0.325 0.92
vt 0.35 0.92
vt 0.35 0.96
vt 0.325 0.96
vt 0.375 0.92
vt 0.375 0.96
vt 0.4 0.92
vt 0.4 0.96
vt 0.4 0.72
vt 0.425 0.72
vt 0.325 0.84
vt 0.35 0.84
vt 0.35 0.88
vt 0.325 0.88
vt 0.375 0.84
vt 0.375 0.88
vt 0.4 0.88

# Normal
vn 0 0 -1

# Mesh description
g casacuarto2_mesh_0005

# Faces
f 1/1/1 2/2/1 3/3/1 4/4/1
f 5/5/1 6/6/1 7/2/1 8/1/1
f 9/1/1 10/2/1 11/3/1 12/4/1
f 13/5/1 14/6/1 15/2/1 16/1/1
f 17/1/1 18/2/1 19/3/1 20/4/1
f 21/5/1 22/6/1 23/2/1 24/1/1
f 25/7/1 26/8/1 27/9/1 28/10/1
f 29/11/1 30/12/1 31/8/1 32/7/1
f 33/13/1 34/14/1 35/15/1 36/16/1
f 37/14/1 38/17/1 39/18/1 40/15/1
f 41/17/1 42/19/1 43/20/1 44/18/1
f 45/21/1 46/22/1 47/12/1 48/11/1
f 49/23/1 50/24/1 51/25/1 52/26/1
f 53/24/1 54/27/1 55/28/1 56/25/1
f 57/27/1 58/10/1 59/29/1 60/28/1

