# Tiled2Unity generated file. Do not modify by hand.
# Wavefront file for 'casacuarto2_mesh_0004.obj'

# Vertices (Count = 48)
v -3 -1 0
v -4 -1 0
v -4 0 0
v -3 0 0
v -6 -1 0
v -7 -1 0
v -7 0 0
v -6 0 0
v -2 -2 0
v -3 -2 0
v -3 -1 0
v -2 -1 0
v -3 -2 0
v -4 -2 0
v -4 -1 0
v -3 -1 0
v -6 -2 0
v -7 -2 0
v -7 -1 0
v -6 -1 0
v -7 -2 0
v -8 -2 0
v -8 -1 0
v -7 -1 0
v -2 -3 0
v -3 -3 0
v -3 -2 0
v -2 -2 0
v -3 -3 0
v -4 -3 0
v -4 -2 0
v -3 -2 0
v -6 -3 0
v -7 -3 0
v -7 -2 0
v -6 -2 0
v -7 -3 0
v -8 -3 0
v -8 -2 0
v -7 -2 0
v -2 -4 0
v -3 -4 0
v -3 -3 0
v -2 -3 0
v -7 -4 0
v -8 -4 0
v -8 -3 0
v -7 -3 0

# Texture cooridinates (Count = 24)
vt 0.475 0.92
vt 0.5 0.92
vt 0.5 0.96
vt 0.475 0.96
vt 0 0.68
vt 0.025 0.68
vt 0.025 0.72
vt 0 0.72
vt 0.475 0.88
vt 0.5 0.88
vt 0.05 0.68
vt 0.075 0.68
vt 0.075 0.72
vt 0.05 0.72
vt 0 0.64
vt 0.025 0.64
vt 0.475 0.84
vt 0.5 0.84
vt 0.05 0.64
vt 0.075 0.64
vt 0 0.6
vt 0.025 0.6
vt 0.05 0.6
vt 0.075 0.6

# Normal
vn 0 0 -1

# Mesh description
g casacuarto2_mesh_0004

# Faces
f 1/1/1 2/2/1 3/3/1 4/4/1
f 5/1/1 6/2/1 7/3/1 8/4/1
f 9/5/1 10/6/1 11/7/1 12/8/1
f 13/9/1 14/10/1 15/2/1 16/1/1
f 17/9/1 18/10/1 19/2/1 20/1/1
f 21/11/1 22/12/1 23/13/1 24/14/1
f 25/15/1 26/16/1 27/6/1 28/5/1
f 29/17/1 30/18/1 31/10/1 32/9/1
f 33/17/1 34/18/1 35/10/1 36/9/1
f 37/19/1 38/20/1 39/12/1 40/11/1
f 41/21/1 42/22/1 43/16/1 44/15/1
f 45/23/1 46/24/1 47/20/1 48/19/1

