# Tiled2Unity generated file. Do not modify by hand.
# Wavefront file for 'zona1_mesh_0004.obj'

# Vertices (Count = 228)
v -32 -1 0
v -33 -1 0
v -33 0 0
v -32 0 0
v -21 -2 0
v -22 -2 0
v -22 -1 0
v -21 -1 0
v -24 -2 0
v -25 -2 0
v -25 -1 0
v -24 -1 0
v -33 -3 0
v -34 -3 0
v -34 -2 0
v -33 -2 0
v -16 -4 0
v -17 -4 0
v -17 -3 0
v -16 -3 0
v -26 -4 0
v -27 -4 0
v -27 -3 0
v -26 -3 0
v -19 -6 0
v -20 -6 0
v -20 -5 0
v -19 -5 0
v -24 -6 0
v -25 -6 0
v -25 -5 0
v -24 -5 0
v -25 -6 0
v -26 -6 0
v -26 -5 0
v -25 -5 0
v -31 -6 0
v -32 -6 0
v -32 -5 0
v -31 -5 0
v -24 -7 0
v -25 -7 0
v -25 -6 0
v -24 -6 0
v -25 -7 0
v -26 -7 0
v -26 -6 0
v -25 -6 0
v -24 -8 0
v -25 -8 0
v -25 -7 0
v -24 -7 0
v -25 -8 0
v -26 -8 0
v -26 -7 0
v -25 -7 0
v -25 -9 0
v -26 -9 0
v -26 -8 0
v -25 -8 0
v -36 -9 0
v -37 -9 0
v -37 -8 0
v -36 -8 0
v -37 -9 0
v -38 -9 0
v -38 -8 0
v -37 -8 0
v -38 -9 0
v -39 -9 0
v -39 -8 0
v -38 -8 0
v -46 -9 0
v -47 -9 0
v -47 -8 0
v -46 -8 0
v -47 -9 0
v -48 -9 0
v -48 -8 0
v -47 -8 0
v -48 -9 0
v -49 -9 0
v -49 -8 0
v -48 -8 0
v -14 -10 0
v -15 -10 0
v -15 -9 0
v -14 -9 0
v -34 -10 0
v -35 -10 0
v -35 -9 0
v -34 -9 0
v -36 -10 0
v -37 -10 0
v -37 -9 0
v -36 -9 0
v -37 -10 0
v -38 -10 0
v -38 -9 0
v -37 -9 0
v -38 -10 0
v -39 -10 0
v -39 -9 0
v -38 -9 0
v -46 -10 0
v -47 -10 0
v -47 -9 0
v -46 -9 0
v -47 -10 0
v -48 -10 0
v -48 -9 0
v -47 -9 0
v -48 -10 0
v -49 -10 0
v -49 -9 0
v -48 -9 0
v -4 -16 0
v -5 -16 0
v -5 -15 0
v -4 -15 0
v -15 -16 0
v -16 -16 0
v -16 -15 0
v -15 -15 0
v -30 -16 0
v -31 -16 0
v -31 -15 0
v -30 -15 0
v -35 -16 0
v -36 -16 0
v -36 -15 0
v -35 -15 0
v -36 -16 0
v -37 -16 0
v -37 -15 0
v -36 -15 0
v -37 -16 0
v -38 -16 0
v -38 -15 0
v -37 -15 0
v -40 -16 0
v -41 -16 0
v -41 -15 0
v -40 -15 0
v -41 -16 0
v -42 -16 0
v -42 -15 0
v -41 -15 0
v -42 -16 0
v -43 -16 0
v -43 -15 0
v -42 -15 0
v -45 -16 0
v -46 -16 0
v -46 -15 0
v -45 -15 0
v -46 -16 0
v -47 -16 0
v -47 -15 0
v -46 -15 0
v -47 -16 0
v -48 -16 0
v -48 -15 0
v -47 -15 0
v -35 -18 0
v -36 -18 0
v -36 -17 0
v -35 -17 0
v -36 -18 0
v -37 -18 0
v -37 -17 0
v -36 -17 0
v -40 -18 0
v -41 -18 0
v -41 -17 0
v -40 -17 0
v -41 -18 0
v -42 -18 0
v -42 -17 0
v -41 -17 0
v -42 -18 0
v -43 -18 0
v -43 -17 0
v -42 -17 0
v -45 -18 0
v -46 -18 0
v -46 -17 0
v -45 -17 0
v -46 -18 0
v -47 -18 0
v -47 -17 0
v -46 -17 0
v -47 -18 0
v -48 -18 0
v -48 -17 0
v -47 -17 0
v -35 -19 0
v -36 -19 0
v -36 -18 0
v -35 -18 0
v -36 -19 0
v -37 -19 0
v -37 -18 0
v -36 -18 0
v -40 -19 0
v -41 -19 0
v -41 -18 0
v -40 -18 0
v -41 -19 0
v -42 -19 0
v -42 -18 0
v -41 -18 0
v -42 -19 0
v -43 -19 0
v -43 -18 0
v -42 -18 0
v -45 -19 0
v -46 -19 0
v -46 -18 0
v -45 -18 0
v -46 -19 0
v -47 -19 0
v -47 -18 0
v -46 -18 0
v -47 -19 0
v -48 -19 0
v -48 -18 0
v -47 -18 0

# Texture cooridinates (Count = 68)
vt 0.075 0.9444444
vt 0.1 0.9444444
vt 0.1 0.9722222
vt 0.075 0.9722222
vt 0.075 0.8611111
vt 0.1 0.8611111
vt 0.1 0.8888889
vt 0.075 0.8888889
vt 0.025 0.9444444
vt 0.05 0.9444444
vt 0.05 0.9722222
vt 0.025 0.9722222
vt 0.125 0.8888889
vt 0.125 0.9166667
vt 0.1 0.9166667
vt 0 0.9166667
vt 0.025 0.9166667
vt 0 0.9444444
vt 0.325 0.8333333
vt 0.35 0.8333333
vt 0.35 0.8611111
vt 0.325 0.8611111
vt 0.375 0.8333333
vt 0.375 0.8611111
vt 0.15 0.8888889
vt 0.15 0.9166667
vt 0.325 0.8055556
vt 0.35 0.8055556
vt 0.375 0.8055556
vt 0.325 0.7777778
vt 0.35 0.7777778
vt 0.375 0.7777778
vt 0.075 0.6666666
vt 0.1 0.6666666
vt 0.1 0.6944444
vt 0.075 0.6944444
vt 0.65 0.4166667
vt 0.675 0.4166667
vt 0.675 0.4444444
vt 0.65 0.4444444
vt 0.7 0.4166667
vt 0.7 0.4444444
vt 0.725 0.4166667
vt 0.725 0.4444444
vt 0 0.75
vt 0.025 0.75
vt 0.025 0.7777778
vt 0 0.7777778
vt 0.65 0.3888889
vt 0.675 0.3888889
vt 0.7 0.3888889
vt 0.725 0.3888889
vt 0.1 0.5
vt 0.125 0.5
vt 0.125 0.5277778
vt 0.1 0.5277778
vt 0.575 0.4166667
vt 0.6 0.4166667
vt 0.6 0.4444444
vt 0.575 0.4444444
vt 0.625 0.4166667
vt 0.625 0.4444444
vt 0.75 0.4166667
vt 0.75 0.4444444
vt 0.575 0.3888889
vt 0.6 0.3888889
vt 0.625 0.3888889
vt 0.75 0.3888889

# Normal
vn 0 0 -1

# Mesh description
g zona1_mesh_0004

# Faces
f 1/1/1 2/2/1 3/3/1 4/4/1
f 5/5/1 6/6/1 7/7/1 8/8/1
f 9/9/1 10/10/1 11/11/1 12/12/1
f 13/5/1 14/6/1 15/7/1 16/8/1
f 17/5/1 18/6/1 19/7/1 20/8/1
f 21/7/1 22/13/1 23/14/1 24/15/1
f 25/16/1 26/17/1 27/9/1 28/18/1
f 29/19/1 30/20/1 31/21/1 32/22/1
f 33/20/1 34/23/1 35/24/1 36/21/1
f 37/13/1 38/25/1 39/26/1 40/14/1
f 41/27/1 42/28/1 43/20/1 44/19/1
f 45/28/1 46/29/1 47/23/1 48/20/1
f 49/30/1 50/31/1 51/28/1 52/27/1
f 53/31/1 54/32/1 55/29/1 56/28/1
f 57/33/1 58/34/1 59/35/1 60/36/1
f 61/37/1 62/38/1 63/39/1 64/40/1
f 65/38/1 66/41/1 67/42/1 68/39/1
f 69/41/1 70/43/1 71/44/1 72/42/1
f 73/37/1 74/38/1 75/39/1 76/40/1
f 77/38/1 78/41/1 79/42/1 80/39/1
f 81/41/1 82/43/1 83/44/1 84/42/1
f 85/45/1 86/46/1 87/47/1 88/48/1
f 89/33/1 90/34/1 91/35/1 92/36/1
f 93/49/1 94/50/1 95/38/1 96/37/1
f 97/50/1 98/51/1 99/41/1 100/38/1
f 101/51/1 102/52/1 103/43/1 104/41/1
f 105/49/1 106/50/1 107/38/1 108/37/1
f 109/50/1 110/51/1 111/41/1 112/38/1
f 113/51/1 114/52/1 115/43/1 116/41/1
f 117/45/1 118/46/1 119/47/1 120/48/1
f 121/45/1 122/46/1 123/47/1 124/48/1
f 125/33/1 126/34/1 127/35/1 128/36/1
f 129/53/1 130/54/1 131/55/1 132/56/1
f 133/53/1 134/54/1 135/55/1 136/56/1
f 137/53/1 138/54/1 139/55/1 140/56/1
f 141/53/1 142/54/1 143/55/1 144/56/1
f 145/53/1 146/54/1 147/55/1 148/56/1
f 149/53/1 150/54/1 151/55/1 152/56/1
f 153/53/1 154/54/1 155/55/1 156/56/1
f 157/53/1 158/54/1 159/55/1 160/56/1
f 161/53/1 162/54/1 163/55/1 164/56/1
f 165/37/1 166/38/1 167/39/1 168/40/1
f 169/38/1 170/41/1 171/42/1 172/39/1
f 173/57/1 174/58/1 175/59/1 176/60/1
f 177/58/1 178/61/1 179/62/1 180/59/1
f 181/61/1 182/37/1 183/40/1 184/62/1
f 185/38/1 186/41/1 187/42/1 188/39/1
f 189/41/1 190/43/1 191/44/1 192/42/1
f 193/43/1 194/63/1 195/64/1 196/44/1
f 197/49/1 198/50/1 199/38/1 200/37/1
f 201/50/1 202/51/1 203/41/1 204/38/1
f 205/65/1 206/66/1 207/58/1 208/57/1
f 209/66/1 210/67/1 211/61/1 212/58/1
f 213/67/1 214/49/1 215/37/1 216/61/1
f 217/50/1 218/51/1 219/41/1 220/38/1
f 221/51/1 222/52/1 223/43/1 224/41/1
f 225/52/1 226/68/1 227/63/1 228/43/1

