# Tiled2Unity generated file. Do not modify by hand.
# Wavefront file for 'Ciudad_mesh_0002.obj'

# Vertices (Count = 780)
v 0 -1 0
v -1 -1 0
v -1 0 0
v 0 0 0
v -1 -1 0
v -2 -1 0
v -2 0 0
v -1 0 0
v -2 -1 0
v -3 -1 0
v -3 0 0
v -2 0 0
v -3 -1 0
v -4 -1 0
v -4 0 0
v -3 0 0
v -4 -1 0
v -5 -1 0
v -5 0 0
v -4 0 0
v -5 -1 0
v -6 -1 0
v -6 0 0
v -5 0 0
v -6 -1 0
v -7 -1 0
v -7 0 0
v -6 0 0
v -7 -1 0
v -8 -1 0
v -8 0 0
v -7 0 0
v -8 -1 0
v -9 -1 0
v -9 0 0
v -8 0 0
v -9 -1 0
v -10 -1 0
v -10 0 0
v -9 0 0
v -10 -1 0
v -11 -1 0
v -11 0 0
v -10 0 0
v -11 -1 0
v -12 -1 0
v -12 0 0
v -11 0 0
v -12 -1 0
v -13 -1 0
v -13 0 0
v -12 0 0
v -14 -1 0
v -15 -1 0
v -15 0 0
v -14 0 0
v -15 -1 0
v -16 -1 0
v -16 0 0
v -15 0 0
v -16 -1 0
v -17 -1 0
v -17 0 0
v -16 0 0
v -17 -1 0
v -18 -1 0
v -18 0 0
v -17 0 0
v -18 -1 0
v -19 -1 0
v -19 0 0
v -18 0 0
v -19 -1 0
v -20 -1 0
v -20 0 0
v -19 0 0
v -20 -1 0
v -21 -1 0
v -21 0 0
v -20 0 0
v -21 -1 0
v -22 -1 0
v -22 0 0
v -21 0 0
v -22 -1 0
v -23 -1 0
v -23 0 0
v -22 0 0
v -23 -1 0
v -24 -1 0
v -24 0 0
v -23 0 0
v -24 -1 0
v -25 -1 0
v -25 0 0
v -24 0 0
v -25 -1 0
v -26 -1 0
v -26 0 0
v -25 0 0
v -26 -1 0
v -27 -1 0
v -27 0 0
v -26 0 0
v -27 -1 0
v -28 -1 0
v -28 0 0
v -27 0 0
v -28 -1 0
v -29 -1 0
v -29 0 0
v -28 0 0
v -29 -1 0
v -30 -1 0
v -30 0 0
v -29 0 0
v -14 -2 0
v -15 -2 0
v -15 -1 0
v -14 -1 0
v -15 -2 0
v -16 -2 0
v -16 -1 0
v -15 -1 0
v -16 -2 0
v -17 -2 0
v -17 -1 0
v -16 -1 0
v -17 -2 0
v -18 -2 0
v -18 -1 0
v -17 -1 0
v -18 -2 0
v -19 -2 0
v -19 -1 0
v -18 -1 0
v -14 -3 0
v -15 -3 0
v -15 -2 0
v -14 -2 0
v -15 -3 0
v -16 -3 0
v -16 -2 0
v -15 -2 0
v -16 -3 0
v -17 -3 0
v -17 -2 0
v -16 -2 0
v -17 -3 0
v -18 -3 0
v -18 -2 0
v -17 -2 0
v -18 -3 0
v -19 -3 0
v -19 -2 0
v -18 -2 0
v -14 -4 0
v -15 -4 0
v -15 -3 0
v -14 -3 0
v -15 -4 0
v -16 -4 0
v -16 -3 0
v -15 -3 0
v -16 -4 0
v -17 -4 0
v -17 -3 0
v -16 -3 0
v -17 -4 0
v -18 -4 0
v -18 -3 0
v -17 -3 0
v -18 -4 0
v -19 -4 0
v -19 -3 0
v -18 -3 0
v -14 -5 0
v -15 -5 0
v -15 -4 0
v -14 -4 0
v -15 -5 0
v -16 -5 0
v -16 -4 0
v -15 -4 0
v -16 -5 0
v -17 -5 0
v -17 -4 0
v -16 -4 0
v -17 -5 0
v -18 -5 0
v -18 -4 0
v -17 -4 0
v -18 -5 0
v -19 -5 0
v -19 -4 0
v -18 -4 0
v -14 -6 0
v -15 -6 0
v -15 -5 0
v -14 -5 0
v -15 -6 0
v -16 -6 0
v -16 -5 0
v -15 -5 0
v -16 -6 0
v -17 -6 0
v -17 -5 0
v -16 -5 0
v -17 -6 0
v -18 -6 0
v -18 -5 0
v -17 -5 0
v -18 -6 0
v -19 -6 0
v -19 -5 0
v -18 -5 0
v -14 -7 0
v -15 -7 0
v -15 -6 0
v -14 -6 0
v -15 -7 0
v -16 -7 0
v -16 -6 0
v -15 -6 0
v -16 -7 0
v -17 -7 0
v -17 -6 0
v -16 -6 0
v -17 -7 0
v -18 -7 0
v -18 -6 0
v -17 -6 0
v -18 -7 0
v -19 -7 0
v -19 -6 0
v -18 -6 0
v -14 -8 0
v -15 -8 0
v -15 -7 0
v -14 -7 0
v -15 -8 0
v -16 -8 0
v -16 -7 0
v -15 -7 0
v -16 -8 0
v -17 -8 0
v -17 -7 0
v -16 -7 0
v -17 -8 0
v -18 -8 0
v -18 -7 0
v -17 -7 0
v -18 -8 0
v -19 -8 0
v -19 -7 0
v -18 -7 0
v -14 -9 0
v -15 -9 0
v -15 -8 0
v -14 -8 0
v -15 -9 0
v -16 -9 0
v -16 -8 0
v -15 -8 0
v -16 -9 0
v -17 -9 0
v -17 -8 0
v -16 -8 0
v -17 -9 0
v -18 -9 0
v -18 -8 0
v -17 -8 0
v -18 -9 0
v -19 -9 0
v -19 -8 0
v -18 -8 0
v -27 -9 0
v -28 -9 0
v -28 -8 0
v -27 -8 0
v -28 -9 0
v -29 -9 0
v -29 -8 0
v -28 -8 0
v -29 -9 0
v -30 -9 0
v -30 -8 0
v -29 -8 0
v -1 -10 0
v -2 -10 0
v -2 -9 0
v -1 -9 0
v -2 -10 0
v -3 -10 0
v -3 -9 0
v -2 -9 0
v -3 -10 0
v -4 -10 0
v -4 -9 0
v -3 -9 0
v -4 -10 0
v -5 -10 0
v -5 -9 0
v -4 -9 0
v -5 -10 0
v -6 -10 0
v -6 -9 0
v -5 -9 0
v -6 -10 0
v -7 -10 0
v -7 -9 0
v -6 -9 0
v -7 -10 0
v -8 -10 0
v -8 -9 0
v -7 -9 0
v -8 -10 0
v -9 -10 0
v -9 -9 0
v -8 -9 0
v -9 -10 0
v -10 -10 0
v -10 -9 0
v -9 -9 0
v -10 -10 0
v -11 -10 0
v -11 -9 0
v -10 -9 0
v -11 -10 0
v -12 -10 0
v -12 -9 0
v -11 -9 0
v -12 -10 0
v -13 -10 0
v -13 -9 0
v -12 -9 0
v -13 -10 0
v -14 -10 0
v -14 -9 0
v -13 -9 0
v -14 -10 0
v -15 -10 0
v -15 -9 0
v -14 -9 0
v -15 -10 0
v -16 -10 0
v -16 -9 0
v -15 -9 0
v -16 -10 0
v -17 -10 0
v -17 -9 0
v -16 -9 0
v -17 -10 0
v -18 -10 0
v -18 -9 0
v -17 -9 0
v -18 -10 0
v -19 -10 0
v -19 -9 0
v -18 -9 0
v -19 -10 0
v -20 -10 0
v -20 -9 0
v -19 -9 0
v -20 -10 0
v -21 -10 0
v -21 -9 0
v -20 -9 0
v -21 -10 0
v -22 -10 0
v -22 -9 0
v -21 -9 0
v -22 -10 0
v -23 -10 0
v -23 -9 0
v -22 -9 0
v -23 -10 0
v -24 -10 0
v -24 -9 0
v -23 -9 0
v -24 -10 0
v -25 -10 0
v -25 -9 0
v -24 -9 0
v -25 -10 0
v -26 -10 0
v -26 -9 0
v -25 -9 0
v -26 -10 0
v -27 -10 0
v -27 -9 0
v -26 -9 0
v -27 -10 0
v -28 -10 0
v -28 -9 0
v -27 -9 0
v -28 -10 0
v -29 -10 0
v -29 -9 0
v -28 -9 0
v -29 -10 0
v -30 -10 0
v -30 -9 0
v -29 -9 0
v 0 -11 0
v -1 -11 0
v -1 -10 0
v 0 -10 0
v -1 -11 0
v -2 -11 0
v -2 -10 0
v -1 -10 0
v -2 -11 0
v -3 -11 0
v -3 -10 0
v -2 -10 0
v -3 -11 0
v -4 -11 0
v -4 -10 0
v -3 -10 0
v -4 -11 0
v -5 -11 0
v -5 -10 0
v -4 -10 0
v -5 -11 0
v -6 -11 0
v -6 -10 0
v -5 -10 0
v -6 -11 0
v -7 -11 0
v -7 -10 0
v -6 -10 0
v -7 -11 0
v -8 -11 0
v -8 -10 0
v -7 -10 0
v -8 -11 0
v -9 -11 0
v -9 -10 0
v -8 -10 0
v -9 -11 0
v -10 -11 0
v -10 -10 0
v -9 -10 0
v -10 -11 0
v -11 -11 0
v -11 -10 0
v -10 -10 0
v -11 -11 0
v -12 -11 0
v -12 -10 0
v -11 -10 0
v -12 -11 0
v -13 -11 0
v -13 -10 0
v -12 -10 0
v -13 -11 0
v -14 -11 0
v -14 -10 0
v -13 -10 0
v -14 -11 0
v -15 -11 0
v -15 -10 0
v -14 -10 0
v -15 -11 0
v -16 -11 0
v -16 -10 0
v -15 -10 0
v -16 -11 0
v -17 -11 0
v -17 -10 0
v -16 -10 0
v -17 -11 0
v -18 -11 0
v -18 -10 0
v -17 -10 0
v -18 -11 0
v -19 -11 0
v -19 -10 0
v -18 -10 0
v -19 -11 0
v -20 -11 0
v -20 -10 0
v -19 -10 0
v -20 -11 0
v -21 -11 0
v -21 -10 0
v -20 -10 0
v -21 -11 0
v -22 -11 0
v -22 -10 0
v -21 -10 0
v -22 -11 0
v -23 -11 0
v -23 -10 0
v -22 -10 0
v -23 -11 0
v -24 -11 0
v -24 -10 0
v -23 -10 0
v -24 -11 0
v -25 -11 0
v -25 -10 0
v -24 -10 0
v -25 -11 0
v -26 -11 0
v -26 -10 0
v -25 -10 0
v -26 -11 0
v -27 -11 0
v -27 -10 0
v -26 -10 0
v -27 -11 0
v -28 -11 0
v -28 -10 0
v -27 -10 0
v -28 -11 0
v -29 -11 0
v -29 -10 0
v -28 -10 0
v -29 -11 0
v -30 -11 0
v -30 -10 0
v -29 -10 0
v 0 -12 0
v -1 -12 0
v -1 -11 0
v 0 -11 0
v -1 -12 0
v -2 -12 0
v -2 -11 0
v -1 -11 0
v -2 -12 0
v -3 -12 0
v -3 -11 0
v -2 -11 0
v -3 -12 0
v -4 -12 0
v -4 -11 0
v -3 -11 0
v -4 -12 0
v -5 -12 0
v -5 -11 0
v -4 -11 0
v -5 -12 0
v -6 -12 0
v -6 -11 0
v -5 -11 0
v -6 -12 0
v -7 -12 0
v -7 -11 0
v -6 -11 0
v -7 -12 0
v -8 -12 0
v -8 -11 0
v -7 -11 0
v -8 -12 0
v -9 -12 0
v -9 -11 0
v -8 -11 0
v -9 -12 0
v -10 -12 0
v -10 -11 0
v -9 -11 0
v -10 -12 0
v -11 -12 0
v -11 -11 0
v -10 -11 0
v -11 -12 0
v -12 -12 0
v -12 -11 0
v -11 -11 0
v -12 -12 0
v -13 -12 0
v -13 -11 0
v -12 -11 0
v -13 -12 0
v -14 -12 0
v -14 -11 0
v -13 -11 0
v -14 -12 0
v -15 -12 0
v -15 -11 0
v -14 -11 0
v -15 -12 0
v -16 -12 0
v -16 -11 0
v -15 -11 0
v -16 -12 0
v -17 -12 0
v -17 -11 0
v -16 -11 0
v -17 -12 0
v -18 -12 0
v -18 -11 0
v -17 -11 0
v -18 -12 0
v -19 -12 0
v -19 -11 0
v -18 -11 0
v -19 -12 0
v -20 -12 0
v -20 -11 0
v -19 -11 0
v -20 -12 0
v -21 -12 0
v -21 -11 0
v -20 -11 0
v -21 -12 0
v -22 -12 0
v -22 -11 0
v -21 -11 0
v -22 -12 0
v -23 -12 0
v -23 -11 0
v -22 -11 0
v -23 -12 0
v -24 -12 0
v -24 -11 0
v -23 -11 0
v -24 -12 0
v -25 -12 0
v -25 -11 0
v -24 -11 0
v -25 -12 0
v -26 -12 0
v -26 -11 0
v -25 -11 0
v -26 -12 0
v -27 -12 0
v -27 -11 0
v -26 -11 0
v -27 -12 0
v -28 -12 0
v -28 -11 0
v -27 -11 0
v -28 -12 0
v -29 -12 0
v -29 -11 0
v -28 -11 0
v -29 -12 0
v -30 -12 0
v -30 -11 0
v -29 -11 0
v -1 -16 0
v -2 -16 0
v -2 -15 0
v -1 -15 0
v -2 -16 0
v -3 -16 0
v -3 -15 0
v -2 -15 0
v -3 -16 0
v -4 -16 0
v -4 -15 0
v -3 -15 0
v -4 -16 0
v -5 -16 0
v -5 -15 0
v -4 -15 0
v -5 -16 0
v -6 -16 0
v -6 -15 0
v -5 -15 0
v -6 -16 0
v -7 -16 0
v -7 -15 0
v -6 -15 0
v -7 -16 0
v -8 -16 0
v -8 -15 0
v -7 -15 0
v -8 -16 0
v -9 -16 0
v -9 -15 0
v -8 -15 0
v -9 -16 0
v -10 -16 0
v -10 -15 0
v -9 -15 0
v -10 -16 0
v -11 -16 0
v -11 -15 0
v -10 -15 0
v -11 -16 0
v -12 -16 0
v -12 -15 0
v -11 -15 0
v -12 -16 0
v -13 -16 0
v -13 -15 0
v -12 -15 0
v -20 -16 0
v -21 -16 0
v -21 -15 0
v -20 -15 0
v -21 -16 0
v -22 -16 0
v -22 -15 0
v -21 -15 0
v -22 -16 0
v -23 -16 0
v -23 -15 0
v -22 -15 0
v -23 -16 0
v -24 -16 0
v -24 -15 0
v -23 -15 0
v -24 -16 0
v -25 -16 0
v -25 -15 0
v -24 -15 0
v -25 -16 0
v -26 -16 0
v -26 -15 0
v -25 -15 0
v -26 -16 0
v -27 -16 0
v -27 -15 0
v -26 -15 0
v -27 -16 0
v -28 -16 0
v -28 -15 0
v -27 -15 0
v -28 -16 0
v -29 -16 0
v -29 -15 0
v -28 -15 0
v -29 -16 0
v -30 -16 0
v -30 -15 0
v -29 -15 0
v -1 -17 0
v -2 -17 0
v -2 -16 0
v -1 -16 0
v -12 -17 0
v -13 -17 0
v -13 -16 0
v -12 -16 0
v -20 -17 0
v -21 -17 0
v -21 -16 0
v -20 -16 0
v -1 -18 0
v -2 -18 0
v -2 -17 0
v -1 -17 0
v -12 -18 0
v -13 -18 0
v -13 -17 0
v -12 -17 0
v -20 -18 0
v -21 -18 0
v -21 -17 0
v -20 -17 0
v -1 -19 0
v -2 -19 0
v -2 -18 0
v -1 -18 0
v -12 -19 0
v -13 -19 0
v -13 -18 0
v -12 -18 0
v -20 -19 0
v -21 -19 0
v -21 -18 0
v -20 -18 0
v -1 -20 0
v -2 -20 0
v -2 -19 0
v -1 -19 0
v -12 -20 0
v -13 -20 0
v -13 -19 0
v -12 -19 0
v -20 -20 0
v -21 -20 0
v -21 -19 0
v -20 -19 0

# Texture cooridinates (Count = 31)
vt 0.125 0.4444444
vt 0.15 0.4444444
vt 0.15 0.4722222
vt 0.125 0.4722222
vt 0.35 0.1388889
vt 0.375 0.1388889
vt 0.375 0.1666667
vt 0.35 0.1666667
vt 0.4 0.1388889
vt 0.4 0.1666667
vt 0.425 0.1388889
vt 0.425 0.1666667
vt 0.025 0.5833334
vt 0.05 0.5833334
vt 0.05 0.6111111
vt 0.025 0.6111111
vt 0.05 0.5555556
vt 0.075 0.5555556
vt 0.075 0.5833334
vt 0.425 0.08333331
vt 0.45 0.08333331
vt 0.45 0.1111111
vt 0.425 0.1111111
vt 0.425 0.05555558
vt 0.45 0.05555558
vt 0.05 0.6388889
vt 0.025 0.6388889
vt 0.075 0.6111111
vt 0.1 0.6111111
vt 0.1 0.6388889
vt 0.075 0.6388889

# Normal
vn 0 0 -1

# Mesh description
g Ciudad_mesh_0002

# Faces
f 1/1/1 2/2/1 3/3/1 4/4/1
f 5/1/1 6/2/1 7/3/1 8/4/1
f 9/1/1 10/2/1 11/3/1 12/4/1
f 13/1/1 14/2/1 15/3/1 16/4/1
f 17/1/1 18/2/1 19/3/1 20/4/1
f 21/1/1 22/2/1 23/3/1 24/4/1
f 25/1/1 26/2/1 27/3/1 28/4/1
f 29/1/1 30/2/1 31/3/1 32/4/1
f 33/1/1 34/2/1 35/3/1 36/4/1
f 37/1/1 38/2/1 39/3/1 40/4/1
f 41/1/1 42/2/1 43/3/1 44/4/1
f 45/1/1 46/2/1 47/3/1 48/4/1
f 49/1/1 50/2/1 51/3/1 52/4/1
f 53/5/1 54/6/1 55/7/1 56/8/1
f 57/6/1 58/9/1 59/10/1 60/7/1
f 61/6/1 62/9/1 63/10/1 64/7/1
f 65/6/1 66/9/1 67/10/1 68/7/1
f 69/9/1 70/11/1 71/12/1 72/10/1
f 73/13/1 74/14/1 75/15/1 76/16/1
f 77/1/1 78/2/1 79/3/1 80/4/1
f 81/1/1 82/2/1 83/3/1 84/4/1
f 85/1/1 86/2/1 87/3/1 88/4/1
f 89/1/1 90/2/1 91/3/1 92/4/1
f 93/1/1 94/2/1 95/3/1 96/4/1
f 97/1/1 98/2/1 99/3/1 100/4/1
f 101/1/1 102/2/1 103/3/1 104/4/1
f 105/1/1 106/2/1 107/3/1 108/4/1
f 109/1/1 110/2/1 111/3/1 112/4/1
f 113/1/1 114/2/1 115/3/1 116/4/1
f 117/5/1 118/6/1 119/7/1 120/8/1
f 121/6/1 122/9/1 123/10/1 124/7/1
f 125/6/1 126/9/1 127/10/1 128/7/1
f 129/6/1 130/9/1 131/10/1 132/7/1
f 133/9/1 134/11/1 135/12/1 136/10/1
f 137/5/1 138/6/1 139/7/1 140/8/1
f 141/6/1 142/9/1 143/10/1 144/7/1
f 145/6/1 146/9/1 147/10/1 148/7/1
f 149/6/1 150/9/1 151/10/1 152/7/1
f 153/9/1 154/11/1 155/12/1 156/10/1
f 157/5/1 158/6/1 159/7/1 160/8/1
f 161/6/1 162/9/1 163/10/1 164/7/1
f 165/6/1 166/9/1 167/10/1 168/7/1
f 169/6/1 170/9/1 171/10/1 172/7/1
f 173/9/1 174/11/1 175/12/1 176/10/1
f 177/5/1 178/6/1 179/7/1 180/8/1
f 181/6/1 182/9/1 183/10/1 184/7/1
f 185/6/1 186/9/1 187/10/1 188/7/1
f 189/6/1 190/9/1 191/10/1 192/7/1
f 193/9/1 194/11/1 195/12/1 196/10/1
f 197/5/1 198/6/1 199/7/1 200/8/1
f 201/6/1 202/9/1 203/10/1 204/7/1
f 205/6/1 206/9/1 207/10/1 208/7/1
f 209/6/1 210/9/1 211/10/1 212/7/1
f 213/9/1 214/11/1 215/12/1 216/10/1
f 217/5/1 218/6/1 219/7/1 220/8/1
f 221/6/1 222/9/1 223/10/1 224/7/1
f 225/6/1 226/9/1 227/10/1 228/7/1
f 229/6/1 230/9/1 231/10/1 232/7/1
f 233/9/1 234/11/1 235/12/1 236/10/1
f 237/5/1 238/6/1 239/7/1 240/8/1
f 241/6/1 242/9/1 243/10/1 244/7/1
f 245/6/1 246/9/1 247/10/1 248/7/1
f 249/6/1 250/9/1 251/10/1 252/7/1
f 253/9/1 254/11/1 255/12/1 256/10/1
f 257/5/1 258/6/1 259/7/1 260/8/1
f 261/6/1 262/9/1 263/10/1 264/7/1
f 265/6/1 266/9/1 267/10/1 268/7/1
f 269/6/1 270/9/1 271/10/1 272/7/1
f 273/9/1 274/11/1 275/12/1 276/10/1
f 277/17/1 278/18/1 279/19/1 280/14/1
f 281/17/1 282/18/1 283/19/1 284/14/1
f 285/17/1 286/18/1 287/19/1 288/14/1
f 289/20/1 290/21/1 291/22/1 292/23/1
f 293/20/1 294/21/1 295/22/1 296/23/1
f 297/20/1 298/21/1 299/22/1 300/23/1
f 301/20/1 302/21/1 303/22/1 304/23/1
f 305/20/1 306/21/1 307/22/1 308/23/1
f 309/20/1 310/21/1 311/22/1 312/23/1
f 313/20/1 314/21/1 315/22/1 316/23/1
f 317/20/1 318/21/1 319/22/1 320/23/1
f 321/20/1 322/21/1 323/22/1 324/23/1
f 325/20/1 326/21/1 327/22/1 328/23/1
f 329/20/1 330/21/1 331/22/1 332/23/1
f 333/20/1 334/21/1 335/22/1 336/23/1
f 337/20/1 338/21/1 339/22/1 340/23/1
f 341/6/1 342/9/1 343/10/1 344/7/1
f 345/6/1 346/9/1 347/10/1 348/7/1
f 349/6/1 350/9/1 351/10/1 352/7/1
f 353/6/1 354/9/1 355/10/1 356/7/1
f 357/6/1 358/9/1 359/10/1 360/7/1
f 361/6/1 362/9/1 363/10/1 364/7/1
f 365/20/1 366/21/1 367/22/1 368/23/1
f 369/20/1 370/21/1 371/22/1 372/23/1
f 373/20/1 374/21/1 375/22/1 376/23/1
f 377/20/1 378/21/1 379/22/1 380/23/1
f 381/20/1 382/21/1 383/22/1 384/23/1
f 385/20/1 386/21/1 387/22/1 388/23/1
f 389/20/1 390/21/1 391/22/1 392/23/1
f 393/20/1 394/21/1 395/22/1 396/23/1
f 397/20/1 398/21/1 399/22/1 400/23/1
f 401/20/1 402/21/1 403/22/1 404/23/1
f 405/6/1 406/9/1 407/10/1 408/7/1
f 409/6/1 410/9/1 411/10/1 412/7/1
f 413/6/1 414/9/1 415/10/1 416/7/1
f 417/6/1 418/9/1 419/10/1 420/7/1
f 421/6/1 422/9/1 423/10/1 424/7/1
f 425/6/1 426/9/1 427/10/1 428/7/1
f 429/6/1 430/9/1 431/10/1 432/7/1
f 433/6/1 434/9/1 435/10/1 436/7/1
f 437/6/1 438/9/1 439/10/1 440/7/1
f 441/6/1 442/9/1 443/10/1 444/7/1
f 445/6/1 446/9/1 447/10/1 448/7/1
f 449/6/1 450/9/1 451/10/1 452/7/1
f 453/6/1 454/9/1 455/10/1 456/7/1
f 457/6/1 458/9/1 459/10/1 460/7/1
f 461/6/1 462/9/1 463/10/1 464/7/1
f 465/6/1 466/9/1 467/10/1 468/7/1
f 469/6/1 470/9/1 471/10/1 472/7/1
f 473/6/1 474/9/1 475/10/1 476/7/1
f 477/6/1 478/9/1 479/10/1 480/7/1
f 481/6/1 482/9/1 483/10/1 484/7/1
f 485/6/1 486/9/1 487/10/1 488/7/1
f 489/6/1 490/9/1 491/10/1 492/7/1
f 493/6/1 494/9/1 495/10/1 496/7/1
f 497/6/1 498/9/1 499/10/1 500/7/1
f 501/6/1 502/9/1 503/10/1 504/7/1
f 505/6/1 506/9/1 507/10/1 508/7/1
f 509/6/1 510/9/1 511/10/1 512/7/1
f 513/6/1 514/9/1 515/10/1 516/7/1
f 517/6/1 518/9/1 519/10/1 520/7/1
f 521/6/1 522/9/1 523/10/1 524/7/1
f 525/24/1 526/25/1 527/21/1 528/20/1
f 529/24/1 530/25/1 531/21/1 532/20/1
f 533/24/1 534/25/1 535/21/1 536/20/1
f 537/24/1 538/25/1 539/21/1 540/20/1
f 541/24/1 542/25/1 543/21/1 544/20/1
f 545/24/1 546/25/1 547/21/1 548/20/1
f 549/24/1 550/25/1 551/21/1 552/20/1
f 553/24/1 554/25/1 555/21/1 556/20/1
f 557/24/1 558/25/1 559/21/1 560/20/1
f 561/24/1 562/25/1 563/21/1 564/20/1
f 565/24/1 566/25/1 567/21/1 568/20/1
f 569/24/1 570/25/1 571/21/1 572/20/1
f 573/24/1 574/25/1 575/21/1 576/20/1
f 577/24/1 578/25/1 579/21/1 580/20/1
f 581/24/1 582/25/1 583/21/1 584/20/1
f 585/24/1 586/25/1 587/21/1 588/20/1
f 589/24/1 590/25/1 591/21/1 592/20/1
f 593/24/1 594/25/1 595/21/1 596/20/1
f 597/24/1 598/25/1 599/21/1 600/20/1
f 601/24/1 602/25/1 603/21/1 604/20/1
f 605/24/1 606/25/1 607/21/1 608/20/1
f 609/24/1 610/25/1 611/21/1 612/20/1
f 613/24/1 614/25/1 615/21/1 616/20/1
f 617/24/1 618/25/1 619/21/1 620/20/1
f 621/24/1 622/25/1 623/21/1 624/20/1
f 625/24/1 626/25/1 627/21/1 628/20/1
f 629/24/1 630/25/1 631/21/1 632/20/1
f 633/24/1 634/25/1 635/21/1 636/20/1
f 637/24/1 638/25/1 639/21/1 640/20/1
f 641/24/1 642/25/1 643/21/1 644/20/1
f 645/16/1 646/15/1 647/26/1 648/27/1
f 649/17/1 650/18/1 651/19/1 652/14/1
f 653/17/1 654/18/1 655/19/1 656/14/1
f 657/17/1 658/18/1 659/19/1 660/14/1
f 661/17/1 662/18/1 663/19/1 664/14/1
f 665/17/1 666/18/1 667/19/1 668/14/1
f 669/17/1 670/18/1 671/19/1 672/14/1
f 673/17/1 674/18/1 675/19/1 676/14/1
f 677/17/1 678/18/1 679/19/1 680/14/1
f 681/17/1 682/18/1 683/19/1 684/14/1
f 685/17/1 686/18/1 687/19/1 688/14/1
f 689/28/1 690/29/1 691/30/1 692/31/1
f 693/16/1 694/15/1 695/26/1 696/27/1
f 697/17/1 698/18/1 699/19/1 700/14/1
f 701/17/1 702/18/1 703/19/1 704/14/1
f 705/17/1 706/18/1 707/19/1 708/14/1
f 709/17/1 710/18/1 711/19/1 712/14/1
f 713/17/1 714/18/1 715/19/1 716/14/1
f 717/17/1 718/18/1 719/19/1 720/14/1
f 721/17/1 722/18/1 723/19/1 724/14/1
f 725/17/1 726/18/1 727/19/1 728/14/1
f 729/17/1 730/18/1 731/19/1 732/14/1
f 733/13/1 734/14/1 735/15/1 736/16/1
f 737/13/1 738/14/1 739/15/1 740/16/1
f 741/13/1 742/14/1 743/15/1 744/16/1
f 745/13/1 746/14/1 747/15/1 748/16/1
f 749/13/1 750/14/1 751/15/1 752/16/1
f 753/13/1 754/14/1 755/15/1 756/16/1
f 757/13/1 758/14/1 759/15/1 760/16/1
f 761/13/1 762/14/1 763/15/1 764/16/1
f 765/13/1 766/14/1 767/15/1 768/16/1
f 769/13/1 770/14/1 771/15/1 772/16/1
f 773/13/1 774/14/1 775/15/1 776/16/1
f 777/13/1 778/14/1 779/15/1 780/16/1

