# Tiled2Unity generated file. Do not modify by hand.
# Wavefront file for 'zona-2_mesh_0003.obj'

# Vertices (Count = 128)
v 0 -1 0
v -1 -1 0
v -1 0 0
v 0 0 0
v -1 -1 0
v -2 -1 0
v -2 0 0
v -1 0 0
v -3 -1 0
v -4 -1 0
v -4 0 0
v -3 0 0
v -4 -1 0
v -5 -1 0
v -5 0 0
v -4 0 0
v -9 -1 0
v -10 -1 0
v -10 0 0
v -9 0 0
v -10 -1 0
v -11 -1 0
v -11 0 0
v -10 0 0
v -12 -1 0
v -13 -1 0
v -13 0 0
v -12 0 0
v -13 -1 0
v -14 -1 0
v -14 0 0
v -13 0 0
v -3 -2 0
v -4 -2 0
v -4 -1 0
v -3 -1 0
v -4 -2 0
v -5 -2 0
v -5 -1 0
v -4 -1 0
v -5 -6 0
v -6 -6 0
v -6 -5 0
v -5 -5 0
v -2 -9 0
v -3 -9 0
v -3 -8 0
v -2 -8 0
v -9 -11 0
v -10 -11 0
v -10 -10 0
v -9 -10 0
v -14 -11 0
v -15 -11 0
v -15 -10 0
v -14 -10 0
v -1 -12 0
v -2 -12 0
v -2 -11 0
v -1 -11 0
v -2 -12 0
v -3 -12 0
v -3 -11 0
v -2 -11 0
v -14 -12 0
v -15 -12 0
v -15 -11 0
v -14 -11 0
v -1 -13 0
v -2 -13 0
v -2 -12 0
v -1 -12 0
v -2 -13 0
v -3 -13 0
v -3 -12 0
v -2 -12 0
v -14 -13 0
v -15 -13 0
v -15 -12 0
v -14 -12 0
v -8 -15 0
v -9 -15 0
v -9 -14 0
v -8 -14 0
v -13 -15 0
v -14 -15 0
v -14 -14 0
v -13 -14 0
v -11 -16 0
v -12 -16 0
v -12 -15 0
v -11 -15 0
v -12 -16 0
v -13 -16 0
v -13 -15 0
v -12 -15 0
v -11 -17 0
v -12 -17 0
v -12 -16 0
v -11 -16 0
v -12 -17 0
v -13 -17 0
v -13 -16 0
v -12 -16 0
v -13 -18 0
v -14 -18 0
v -14 -17 0
v -13 -17 0
v 0 -19 0
v -1 -19 0
v -1 -18 0
v 0 -18 0
v -2 -19 0
v -3 -19 0
v -3 -18 0
v -2 -18 0
v -3 -19 0
v -4 -19 0
v -4 -18 0
v -3 -18 0
v -5 -19 0
v -6 -19 0
v -6 -18 0
v -5 -18 0
v -6 -19 0
v -7 -19 0
v -7 -18 0
v -6 -18 0

# Texture cooridinates (Count = 46)
vt 0.275 0.75
vt 0.3 0.75
vt 0.3 0.7777778
vt 0.275 0.7777778
vt 0.325 0.75
vt 0.325 0.7777778
vt 0.3 0.8055556
vt 0.275 0.8055556
vt 0.325 0.8055556
vt 0.125 0.5
vt 0.15 0.5
vt 0.15 0.5277778
vt 0.125 0.5277778
vt 0.175 0.5
vt 0.175 0.5277778
vt 0 0.9444444
vt 0.025 0.9444444
vt 0.025 0.9722222
vt 0 0.9722222
vt 0.35 0.6944444
vt 0.375 0.6944444
vt 0.375 0.7222222
vt 0.35 0.7222222
vt 0.15 0.7222222
vt 0.175 0.7222222
vt 0.175 0.75
vt 0.15 0.75
vt 0.35 0.75
vt 0.35 0.7777778
vt 0.375 0.75
vt 0.375 0.7777778
vt 0.15 0.6944444
vt 0.175 0.6944444
vt 0.325 0.7222222
vt 0.1 0.7777778
vt 0.125 0.7777778
vt 0.125 0.8055556
vt 0.1 0.8055556
vt 0.1 0.75
vt 0.125 0.75
vt 0.175 0.8333333
vt 0.2 0.8333333
vt 0.2 0.8611111
vt 0.175 0.8611111
vt 0.15 0.8333333
vt 0.15 0.8611111

# Normal
vn 0 0 -1

# Mesh description
g zona-2_mesh_0003

# Faces
f 1/1/1 2/2/1 3/3/1 4/4/1
f 5/2/1 6/5/1 7/6/1 8/3/1
f 9/4/1 10/3/1 11/7/1 12/8/1
f 13/3/1 14/6/1 15/9/1 16/7/1
f 17/10/1 18/11/1 19/12/1 20/13/1
f 21/11/1 22/14/1 23/15/1 24/12/1
f 25/10/1 26/11/1 27/12/1 28/13/1
f 29/11/1 30/14/1 31/15/1 32/12/1
f 33/1/1 34/2/1 35/3/1 36/4/1
f 37/2/1 38/5/1 39/6/1 40/3/1
f 41/16/1 42/17/1 43/18/1 44/19/1
f 45/20/1 46/21/1 47/22/1 48/23/1
f 49/16/1 50/17/1 51/18/1 52/19/1
f 53/24/1 54/25/1 55/26/1 56/27/1
f 57/5/1 58/28/1 59/29/1 60/6/1
f 61/28/1 62/30/1 63/31/1 64/29/1
f 65/32/1 66/33/1 67/25/1 68/24/1
f 69/34/1 70/23/1 71/28/1 72/5/1
f 73/23/1 74/22/1 75/30/1 76/28/1
f 77/32/1 78/33/1 79/25/1 80/24/1
f 81/20/1 82/21/1 83/22/1 84/23/1
f 85/35/1 86/36/1 87/37/1 88/38/1
f 89/5/1 90/28/1 91/29/1 92/6/1
f 93/28/1 94/30/1 95/31/1 96/29/1
f 97/34/1 98/23/1 99/28/1 100/5/1
f 101/23/1 102/22/1 103/30/1 104/28/1
f 105/39/1 106/40/1 107/36/1 108/35/1
f 109/41/1 110/42/1 111/43/1 112/44/1
f 113/45/1 114/41/1 115/44/1 116/46/1
f 117/41/1 118/42/1 119/43/1 120/44/1
f 121/45/1 122/41/1 123/44/1 124/46/1
f 125/41/1 126/42/1 127/43/1 128/44/1

